<svg xmlns="http://www.w3.org/2000/svg" viewBox="0 0 616.01 263"><defs><style>.cls-1{fill:rgba(255,255,255,0.08);}</style></defs><title>истории успеха</title><g id="Слой_2" data-name="Слой 2"><g id="Слой_1-2" data-name="Слой 1"><path class="cls-1" d="M401,18.65H382.64V12.9A12.91,12.91,0,0,0,369.76,0H245.26a12.91,12.91,0,0,0-12.89,12.9v5.75H214a19,19,0,0,0-14.51,6.71,18.81,18.81,0,0,0-4.25,15.22,98.48,98.48,0,0,0,50,70.31,130,130,0,0,0,8.22,16.48c9.75,16.42,21.87,27.78,35.22,33.27a27.8,27.8,0,0,1-21.45,29.74l-.08,0a6.08,6.08,0,0,0-4.66,5.91v27.92H251.19A18.27,18.27,0,0,0,233,242.5v14.41A6.08,6.08,0,0,0,239,263H376.56a6.08,6.08,0,0,0,6.08-6.09V242.5a18.27,18.27,0,0,0-18.24-18.26H353.11V196.32a6.08,6.08,0,0,0-4.68-5.92l-.07,0a27.78,27.78,0,0,1-21.43-30c13.11-5.58,25-16.83,34.63-33a130,130,0,0,0,8.22-16.49,98.48,98.48,0,0,0,50-70.31,18.81,18.81,0,0,0-4.25-15.22A19,19,0,0,0,401,18.65Zm-193.75,20a6.56,6.56,0,0,1,1.51-5.38A6.87,6.87,0,0,1,214,30.82h18.36V42a191.44,191.44,0,0,0,6.48,50.13A86.22,86.22,0,0,1,207.25,38.62ZM364.4,236.41a6.09,6.09,0,0,1,6.08,6.09v8.33H245.11V242.5a6.09,6.09,0,0,1,6.08-6.09ZM341,202.4v21.84H274.64V202.4Zm-50.36-12.17a40.29,40.29,0,0,0,4.11-5.37A39.62,39.62,0,0,0,301,164a47.61,47.61,0,0,0,13.65-.08,40.09,40.09,0,0,0,10.44,26.35ZM370.48,42c0,30-6.88,58.09-19.37,79.13-11.9,20-27.39,31.09-43.6,31.09s-31.7-11-43.6-31.09C251.41,100.11,244.53,72,244.53,42V12.9a.73.73,0,0,1,.72-.73h124.5a.73.73,0,0,1,.73.73Zm37.28-3.4a86.22,86.22,0,0,1-31.6,53.52A191.45,191.45,0,0,0,382.64,42V30.82H401a6.87,6.87,0,0,1,5.24,2.43A6.57,6.57,0,0,1,407.76,38.62ZM339.52,58.35l-18.35-2.67L313,39a6.08,6.08,0,0,0-10.91,0l-8.21,16.64L275.5,58.35a6.09,6.09,0,0,0-3.37,10.38l13.28,13L282.27,100a6.08,6.08,0,0,0,8.82,6.42l16.41-8.64,16.41,8.64a6.08,6.08,0,0,0,8.82-6.42l-3.13-18.29,13.28-13a6.09,6.09,0,0,0-3.37-10.38ZM318.83,75.2a6.09,6.09,0,0,0-1.75,5.39l1.59,9.29-8.34-4.39a6.08,6.08,0,0,0-5.66,0l-8.34,4.39,1.59-9.29a6.09,6.09,0,0,0-1.75-5.39l-6.74-6.58,9.32-1.36a6.08,6.08,0,0,0,4.58-3.33l4.17-8.45,4.17,8.45a6.08,6.08,0,0,0,4.58,3.33l9.32,1.36ZM615.5,116.84a10.45,10.45,0,0,0-8.44-7.07l-31.56-4.56L561.38,76.79a10.49,10.49,0,0,0-18.76,0l-14.11,28.42L497,109.77a10.38,10.38,0,0,0-5.8,17.73L514,149.62l-5.39,31.24A10.36,10.36,0,0,0,512.77,191a10.51,10.51,0,0,0,11,.79L552,177.07l28.23,14.75a10.51,10.51,0,0,0,11-.79,10.36,10.36,0,0,0,4.16-10.17L590,149.62l22.84-22.12A10.35,10.35,0,0,0,615.5,116.84Zm-44,21.71a10.35,10.35,0,0,0-3,9.2l2.74,15.87-14.34-7.49a10.52,10.52,0,0,0-9.73,0l-14.34,7.49,2.74-15.87a10.35,10.35,0,0,0-3-9.2l-11.6-11.24L537,125a10.45,10.45,0,0,0,7.87-5.69L552,104.88l7.17,14.44A10.45,10.45,0,0,0,567,125l16,2.32ZM119.06,109.77,87.5,105.21,73.38,76.79a10.49,10.49,0,0,0-18.76,0L40.51,105.21,9,109.77a10.38,10.38,0,0,0-5.8,17.73L26,149.62,20.6,180.86A10.36,10.36,0,0,0,24.77,191a10.51,10.51,0,0,0,11,.79L64,177.07l28.23,14.75a10.51,10.51,0,0,0,11-.79,10.36,10.36,0,0,0,4.16-10.17L102,149.62l22.84-22.12a10.38,10.38,0,0,0-5.8-17.73ZM83.48,138.55a10.35,10.35,0,0,0-3,9.2l2.74,15.87-14.34-7.49a10.53,10.53,0,0,0-9.73,0L44.8,163.62l2.74-15.87a10.36,10.36,0,0,0-3-9.2l-11.6-11.24L49,125a10.45,10.45,0,0,0,7.87-5.69L64,104.88l7.17,14.44A10.45,10.45,0,0,0,79,125l16,2.32Z"/></g></g></svg>