<svg xmlns="http://www.w3.org/2000/svg" xmlns:xlink="http://www.w3.org/1999/xlink" viewBox="0 0 67 87"><defs><style>.cls-1{fill:url(#Безымянный_градиент_6);}.cls-2{fill:#fff;fill-rule:evenodd;}</style><linearGradient id="Безымянный_градиент_6" x1="33.5" y1="87" x2="33.5" gradientUnits="userSpaceOnUse"><stop offset="0" stop-color="#33c"/><stop offset="1"/></linearGradient></defs><title>map pin</title><g id="Слой_2" data-name="Слой 2"><g id="Слой_1-2" data-name="Слой 1"><path class="cls-1" d="M33.5,0A33.35,33.35,0,0,0,7.21,54.06L33.5,87,59.79,54.06A33.35,33.35,0,0,0,33.5,0Z"/><path class="cls-2" d="M39.87,28.15l-4.26,5.77,4.26,5.77H42l-4.26-5.77L42,28.15Zm-6-3.3H32.19V39.69h1.68ZM25.79,37.62a5,5,0,0,1-2.23.42,8,8,0,0,1-2.85-.59l-1,1.32a9.26,9.26,0,0,0,3.91.92,6.1,6.1,0,0,0,3.73-1,2.88,2.88,0,0,0,1.16-2.34,3.18,3.18,0,0,0-.73-2.14,3.88,3.88,0,0,0-2-1.2L23,32.34a3.38,3.38,0,0,1-1.23-.61,1.39,1.39,0,0,1-.52-1.11A1.54,1.54,0,0,1,22,29.35a3.09,3.09,0,0,1,1.74-.49,6.39,6.39,0,0,1,3,.81l1.13-1.27a7.76,7.76,0,0,0-4.17-1.19,4.57,4.57,0,0,0-3,1,3,3,0,0,0-1.12,2.36,3,3,0,0,0,.76,2.09,4.3,4.3,0,0,0,2.2,1.25l2.59.68a2.34,2.34,0,0,1,1.12.62,1.57,1.57,0,0,1,.45,1.12A1.46,1.46,0,0,1,25.79,37.62ZM49,24.07a4.65,4.65,0,0,1,3-1.37V20.82a6.48,6.48,0,0,0-4.38,1.93,6.32,6.32,0,0,0-2,4.69V42.38a4.56,4.56,0,0,1-1.41,3.37,4.66,4.66,0,0,1-3.17,1.38c-.39,0-.8,0-1.19,0H33.94L33.47,49h7.66a6.22,6.22,0,0,0,4.45-1.94,6.32,6.32,0,0,0,2-4.68V31.46h2.1V29.59h-2.1V27.44A4.56,4.56,0,0,1,49,24.07ZM16.9,40.21V24.81a7,7,0,0,1,7-6.92H39.59a7.08,7.08,0,0,1,5.73,2.92l.17-.17a10.15,10.15,0,0,1,1.27-1.07A9,9,0,0,0,39.59,16H23.94A8.89,8.89,0,0,0,15,24.81v15.4A8.89,8.89,0,0,0,23.94,49H30.4l.47-1.88H23.94A7,7,0,0,1,16.9,40.21Z"/></g></g></svg>