<?xml version="1.0" encoding="utf-8"?>
<svg xmlns="http://www.w3.org/2000/svg">
<symbol id="logo" viewBox="0 0 192.81 60.13"><defs><style>.cls-1,.cls-2{fill-rule:evenodd;}.cls-2,.cls-3{fill:#3d3dd9;}</style></defs><title>logo</title><g id="&#x421;&#x43B;&#x43E;&#x439;_2" data-name="&#x421;&#x43B;&#x43E;&#x439; 2"><g id="&#x421;&#x43B;&#x43E;&#x439;_1-2" data-name="&#x421;&#x43B;&#x43E;&#x439; 1"><path class="cls-1" d="M157,39.42l-2.12,2.72A18,18,0,0,0,162.64,44c2.43,0,5.41-.34,7.36-1.94a5.84,5.84,0,0,0,2.3-4.71,6.46,6.46,0,0,0-1.45-4.31,7.67,7.67,0,0,0-4-2.41l-5.28-1.43a6.59,6.59,0,0,1-2.4-1.2,2.74,2.74,0,0,1-1-2.16,3,3,0,0,1,1.4-2.5,5.94,5.94,0,0,1,3.38-1A12.36,12.36,0,0,1,168.9,24l2.3-2.63A15.12,15.12,0,0,0,162.92,19,9,9,0,0,0,157,21a6.12,6.12,0,0,0-2.23,4.77,6.21,6.21,0,0,0,1.5,4.21,8.46,8.46,0,0,0,4.34,2.51l5.08,1.35a4.51,4.51,0,0,1,2.16,1.21,3.09,3.09,0,0,1,.87,2.19A2.85,2.85,0,0,1,167,39.77a9.57,9.57,0,0,1-4.35.83A15.56,15.56,0,0,1,157,39.42Z"/><path class="cls-1" d="M148.41,23.91a16.5,16.5,0,0,0-1.11-1.29,12.54,12.54,0,0,0-21.4,8.87,12.5,12.5,0,0,0,21.94,8.22l-2.69-2.11a9,9,0,0,1-6.73,3A8.77,8.77,0,0,1,134,39.46l-.73-.42,15.13-15.13Zm-4.84,0-12.7,12.7-.42-.73A9.11,9.11,0,0,1,132,25.06a9.11,9.11,0,0,1,10.85-1.53Z"/><path class="cls-1" d="M116.5,43.07h3.42V30.55a11.63,11.63,0,0,0-17.81-9.8l-1,.64V19.87H97.69v23.2h3.42V26.7l.08-.15a8.39,8.39,0,0,1,1.38-1.79,8.16,8.16,0,0,1,13.92,5.79Z"/><polygon class="cls-1" points="84.52 13.33 84.52 43.08 87.94 43.08 87.94 23.33 91.7 23.33 91.7 19.91 87.94 19.91 87.94 13.33 84.52 13.33"/><rect x="72.3" y="12.39" width="3.42" height="3.42"/><rect x="72.3" y="19.91" width="3.42" height="23.16"/><polygon class="cls-2" points="44.59 43.16 48.32 43.16 40.69 32.64 48.32 22.13 44.59 22.13 36.95 32.64 44.59 43.16"/><rect class="cls-3" x="30.83" y="16.12" width="3.01" height="27.04"/><path class="cls-2" d="M10.24,39.08l-1.86,2.4a16.37,16.37,0,0,0,7,1.68c2.2,0,4.92-.31,6.68-1.76a5.28,5.28,0,0,0,2.08-4.26,5.85,5.85,0,0,0-1.31-3.89,6.94,6.94,0,0,0-3.61-2.18l-4.82-1.31a6,6,0,0,1-2.21-1.11,2.56,2.56,0,0,1-.93-2,2.81,2.81,0,0,1,1.3-2.32,5.48,5.48,0,0,1,3.12-.89,11.31,11.31,0,0,1,5.39,1.47l2-2.32a13.73,13.73,0,0,0-7.47-2.17,8.11,8.11,0,0,0-5.39,1.88,5.53,5.53,0,0,0-2,4.31,5.61,5.61,0,0,0,1.35,3.8,7.67,7.67,0,0,0,3.94,2.27l4.63,1.24a4.17,4.17,0,0,1,2,1.12,2.88,2.88,0,0,1,.81,2,2.66,2.66,0,0,1-1.63,2.32,8.77,8.77,0,0,1-4,.76A14.23,14.23,0,0,1,10.24,39.08Z"/><path class="cls-1" d="M66.34,12.2V8.77a11.53,11.53,0,0,0-7.86,3.52A11.61,11.61,0,0,0,55,20.83V48.06a8.37,8.37,0,0,1-2.52,6.13,8.29,8.29,0,0,1-5.68,2.51c-.69,0-1.44,0-2.13,0H34l-.85,3.42H46.86a11.06,11.06,0,0,0,8-3.53,11.61,11.61,0,0,0,3.54-8.54V28.16h3.76V24.74H58.37V20.83a8.37,8.37,0,0,1,2.52-6.13A8.28,8.28,0,0,1,66.34,12.2Z"/><path class="cls-2" d="M54.38,8.74l.31-.31A18.13,18.13,0,0,1,57,6.49,16,16,0,0,0,44.1,0H16A16.06,16.06,0,0,0,0,16V44.1a16.06,16.06,0,0,0,16,16H27.62l.85-3.42H16A12.64,12.64,0,0,1,3.42,44.1V16A12.64,12.64,0,0,1,16,3.42H44.1A12.63,12.63,0,0,1,54.38,8.74Z"/><path class="cls-1" d="M177.49,39.42l-2.12,2.72A18,18,0,0,0,183.14,44c2.43,0,5.41-.34,7.36-1.94a5.84,5.84,0,0,0,2.3-4.71,6.46,6.46,0,0,0-1.45-4.31,7.67,7.67,0,0,0-4-2.41l-5.28-1.43a6.59,6.59,0,0,1-2.4-1.2,2.75,2.75,0,0,1-1-2.16,3,3,0,0,1,1.4-2.5,5.94,5.94,0,0,1,3.38-1A12.36,12.36,0,0,1,189.4,24l2.3-2.63A15.12,15.12,0,0,0,183.42,19,9,9,0,0,0,177.48,21a6.12,6.12,0,0,0-2.23,4.77,6.21,6.21,0,0,0,1.5,4.21,8.46,8.46,0,0,0,4.34,2.51l5.08,1.35a4.52,4.52,0,0,1,2.16,1.21,3.09,3.09,0,0,1,.87,2.19,2.85,2.85,0,0,1-1.75,2.49,9.56,9.56,0,0,1-4.35.83A15.55,15.55,0,0,1,177.49,39.42Z"/></g></g>
</symbol>
<symbol id="metro" viewBox="0 0 29.7 30"><defs><style>.cls-1{fill:#3d3dd9;fill-rule:evenodd;}</style></defs><title>metro</title><g id="&#x421;&#x43B;&#x43E;&#x439;_2" data-name="&#x421;&#x43B;&#x43E;&#x439; 2"><g id="&#x421;&#x43B;&#x43E;&#x439;_1-2" data-name="&#x421;&#x43B;&#x43E;&#x439; 1"><path class="cls-1" d="M14.85,0a15,15,0,0,1,0,30A14.92,14.92,0,0,1,0,15,14.92,14.92,0,0,1,14.85,0ZM14,21l-3.1-5.8L9.74,20.47l-.12.6H6.21l.2-.87L9.19,8.54l.55-2.39,1.14,2.23,4,7.67,3.93-7.67,1.14-2.23.55,2.39,2.79,11.64.24.87H20l-.16-.6L18.7,15.26l-3,5.76-.82,1.55Zm.83-17.76A11.76,11.76,0,1,1,3.22,15,11.69,11.69,0,0,1,14.85,3.26Z"/></g></g>
</symbol>
<symbol id="programmes-1" viewBox="0 0 51 65.99"><defs><style>.cls-1{fill:#3d3dd9;}</style></defs><title>&#x43D;&#x43E;&#x432;&#x438;&#x447;&#x43A;&#x430;&#x43C;</title><g id="&#x421;&#x43B;&#x43E;&#x439;_2" data-name="&#x421;&#x43B;&#x43E;&#x439; 2"><g id="&#x421;&#x43B;&#x43E;&#x439;_1-2" data-name="&#x421;&#x43B;&#x43E;&#x439; 1"><path class="cls-1" d="M47.82,9.9H41.44a3.24,3.24,0,0,0-3.19-3.3H35.07V3.3A3.25,3.25,0,0,0,31.88,0H19.13a3.25,3.25,0,0,0-3.19,3.3V6.6H12.75A3.25,3.25,0,0,0,9.56,9.9H3.19A3.25,3.25,0,0,0,0,13.2V62.69A3.24,3.24,0,0,0,3.19,66H47.82A3.24,3.24,0,0,0,51,62.69V13.2A3.25,3.25,0,0,0,47.82,9.9Zm-35.07,0h6.38V3.3H31.88V9.9h6.38v3.3H12.75ZM47.82,62.69H3.19V13.2H9.56a3.24,3.24,0,0,0,3.19,3.3h25.5a3.24,3.24,0,0,0,3.19-3.3h6.38ZM31.24,49.11H28V26.48c0-.89-.43-1.32-1.3-1.29a1.22,1.22,0,0,0-1.34,1.29,5.63,5.63,0,0,1-1.84,4.38A6.75,6.75,0,0,1,19.27,32q-1.15,0-1.1,1.19a1.1,1.1,0,0,0,1.25,1.19H24.9V49.11H21.68a1.65,1.65,0,0,0,0,3.3h9.56a1.65,1.65,0,0,0,0-3.3Z"/></g></g>
</symbol>
<symbol id="programmes-2" viewBox="0 0 44.94 65.95"><defs><style>.cls-1{fill:#3d3dd9;}</style></defs><title>&#x43F;&#x43E;&#x441;&#x43B;&#x435; &#x442;&#x440;&#x430;&#x432;&#x43C;</title><g id="&#x421;&#x43B;&#x43E;&#x439;_2" data-name="&#x421;&#x43B;&#x43E;&#x439; 2"><g id="&#x421;&#x43B;&#x43E;&#x439;_1-2" data-name="&#x421;&#x43B;&#x43E;&#x439; 1"><path class="cls-1" d="M44.25,6.8,40.52,1.56A3.74,3.74,0,0,0,35.33.68L32.18,2.9a23.31,23.31,0,0,1-14,4.27,7.78,7.78,0,0,0-4.63,1.42,7.71,7.71,0,0,0-3.27,6.69A13.28,13.28,0,0,0,0,28.31a13.46,13.46,0,0,0,1.81,6.75,7.68,7.68,0,0,0-.29,9.53A23.35,23.35,0,0,1,6.09,58.39v3.85a3.72,3.72,0,0,0,3.72,3.7h6.45A3.72,3.72,0,0,0,20,62.24V58.39a23,23,0,0,1,4.57-13.8,7.69,7.69,0,0,0-.29-9.53A13.37,13.37,0,0,0,25.8,31a7.79,7.79,0,0,0,2.84-1.25,7.67,7.67,0,0,0,2.88-3.88,23.43,23.43,0,0,1,8.68-11.69L43.37,12A3.7,3.7,0,0,0,44.25,6.8ZM11.15,18.42a7.74,7.74,0,0,0,5.3,4,7.72,7.72,0,0,0,6,8.54,10.16,10.16,0,0,1-.79,2A7.79,7.79,0,0,0,13,34.33,7.79,7.79,0,0,0,4.41,33a10.26,10.26,0,0,1-1.15-4.73A10,10,0,0,1,11.15,18.42ZM21.93,42.66a26.24,26.24,0,0,0-5.21,15.73v3.85a.46.46,0,0,1-.46.46H9.81a.46.46,0,0,1-.46-.46V58.39A26.6,26.6,0,0,0,4.14,42.66,4.43,4.43,0,0,1,3.26,40a4.51,4.51,0,0,1,8.37-2.3,1.64,1.64,0,0,0,2.8,0A4.51,4.51,0,0,1,22.81,40,4.43,4.43,0,0,1,21.93,42.66ZM41.48,9.31l-3.16,2.22a26.7,26.7,0,0,0-9.9,13.32,4.44,4.44,0,0,1-1.67,2.25A4.52,4.52,0,0,1,20.48,26a4.43,4.43,0,0,1-.45-4.4A1.61,1.61,0,0,0,19.87,20a1.63,1.63,0,0,0-1.33-.69h-.13a4.48,4.48,0,0,1-3-8.12,4.43,4.43,0,0,1,2.68-.82A26.57,26.57,0,0,0,34.06,5.55l3.16-2.22a.46.46,0,0,1,.64.11l3.73,5.24A.46.46,0,0,1,41.48,9.31ZM19.12,11.56a3.83,3.83,0,0,0-3.83,3.81,1.63,1.63,0,0,0,3.26,0,.57.57,0,0,1,.57-.56,1.62,1.62,0,1,0,0-3.25Z"/></g></g>
</symbol>
<symbol id="programmes-3" viewBox="0 0 66.03 65.93"><defs><style>.cls-1{fill:#3d3dd9;}</style></defs><title>&#x43A;&#x440;&#x430;&#x441;&#x43E;&#x442;&#x430; &#x438; &#x437;&#x434;&#x43E;&#x440;&#x43E;&#x432;&#x44C;&#x435;</title><g id="&#x421;&#x43B;&#x43E;&#x439;_2" data-name="&#x421;&#x43B;&#x43E;&#x439; 2"><g id="&#x421;&#x43B;&#x43E;&#x439;_1-2" data-name="&#x421;&#x43B;&#x43E;&#x439; 1"><path class="cls-1" d="M51,2.35a1.65,1.65,0,0,0-3-1.4c-6.72,14.25-2.86,23.21.87,31.87l.47,1.11c-2.83,2.17-8.88,4-16.36,4s-13.54-1.81-16.36-4l.47-1.1C20.86,24.16,24.72,15.2,18,.95a1.65,1.65,0,0,0-3,1.4c6.09,12.91,2.68,20.8-.92,29.16-3.9,9.07-7.94,18.44,1,33.6a1.65,1.65,0,0,0,2.85-1.67c-5.07-8.6-5.57-15-4.31-20.78C23.16,45.32,30,54.6,31.37,56.54v7.73a1.65,1.65,0,0,0,3.3,0V56.54c1.39-2,8.23-11.24,17.74-13.89,1.26,5.75.76,12.19-4.31,20.79a1.65,1.65,0,0,0,2.85,1.67c8.93-15.16,4.89-24.53,1-33.6C48.33,23.16,44.93,15.26,51,2.35ZM33,53.2C30.27,49.59,23.6,42,14.5,39.48c.27-.82.56-1.62.88-2.43C19.17,39.59,25.51,41.2,33,41.2s13.84-1.6,17.65-4.13c.31.8.6,1.6.87,2.41C42.43,42,35.76,49.59,33,53.2Zm0-21.89a1.65,1.65,0,1,0-1.65-1.65A1.65,1.65,0,0,0,33,31.31ZM14.37,18.61l-5-4.94A1.65,1.65,0,1,0,7.09,16l2.13,2.13H1.65a1.65,1.65,0,1,0,0,3.3H9.22L7.09,23.56a1.65,1.65,0,0,0,2.34,2.33l5-4.94A1.65,1.65,0,0,0,14.37,18.61Zm50-.48H56.81L58.94,16a1.65,1.65,0,0,0-2.33-2.33l-5,4.94a1.65,1.65,0,0,0,0,2.33l5,4.94a1.65,1.65,0,0,0,2.34-2.33l-2.13-2.13h7.57a1.65,1.65,0,1,0,0-3.3Z"/></g></g>
</symbol>
<symbol id="programmes-4" viewBox="0 0 66 52"><defs><style>.cls-1{fill:#3d3dd9;}</style></defs><title>&#x441;&#x43D;&#x44F;&#x442;&#x438;&#x435; &#x441;&#x442;&#x440;&#x435;&#x441;&#x441;&#x430;</title><g id="&#x421;&#x43B;&#x43E;&#x439;_2" data-name="&#x421;&#x43B;&#x43E;&#x439; 2"><g id="&#x421;&#x43B;&#x43E;&#x439;_1-2" data-name="&#x421;&#x43B;&#x43E;&#x439; 1"><path class="cls-1" d="M66,17.65a17.17,17.17,0,0,1-.9,5.49C62.29,35.76,38.05,51,37,51.69A1.88,1.88,0,0,1,36,52a1.92,1.92,0,0,1-1.05-.3,130.93,130.93,0,0,1-14-10.37,2,2,0,0,1-.23-2.76,2,2,0,0,1,2.79-.23A131.79,131.79,0,0,0,36,47.71C43.26,43,59.33,31,61.3,22.1A13.74,13.74,0,0,0,54.86,5.56,14.21,14.21,0,0,0,37.48,8.83a2,2,0,0,1-3,0A14.24,14.24,0,0,0,17.06,5.54,13.82,13.82,0,0,0,9.87,17.65a13.47,13.47,0,0,0,.69,4.24,15.28,15.28,0,0,0,1.56,3.88H23.61l3.94-9a2,2,0,0,1,3.72.32l2.9,12.23,3.75-6.12a2,2,0,0,1,1.69-1h7.13a2,2,0,0,1,0,3.92h-6L35.06,35.4a2,2,0,0,1-1.67.94,1.5,1.5,0,0,1-.3,0,2,2,0,0,1-1.62-1.47L28.81,23.71l-2.09,4.8a2,2,0,0,1-1.81,1.19H2a2,2,0,0,1,0-3.92H7.74a17,17,0,0,1-1-2.83,16.83,16.83,0,0,1-.85-5.3A17.72,17.72,0,0,1,15.17,2.12,18.27,18.27,0,0,1,36,4.74,18.25,18.25,0,0,1,56.76,2.12,17.72,17.72,0,0,1,66,17.65Zm0,0"/></g></g>
</symbol>
<symbol id="programmes-5" viewBox="0 0 62.06 65.99"><defs><style>.cls-1{fill:#3d3dd9;}</style></defs><title>&#x43F;&#x43E;&#x441;&#x43B;&#x435; &#x440;&#x43E;&#x434;&#x43E;&#x432;</title><g id="&#x421;&#x43B;&#x43E;&#x439;_2" data-name="&#x421;&#x43B;&#x43E;&#x439; 2"><g id="&#x421;&#x43B;&#x43E;&#x439;_1-2" data-name="&#x421;&#x43B;&#x43E;&#x439; 1"><path class="cls-1" d="M57,34.74C48.91,18.69,55.27,12.32,55.58,12a1.75,1.75,0,0,0,.47-.81,15.31,15.31,0,0,0,3.36-9.51,1.69,1.69,0,1,0-3.38,0,11.59,11.59,0,1,1-23.18,0A1.7,1.7,0,0,0,31.17,0c-.06,0-.1,0-.14,0s-.09,0-.14,0A1.69,1.69,0,0,0,29.2,1.71a11.71,11.71,0,0,1-11.6,11.8A11.7,11.7,0,0,1,6,1.71a1.69,1.69,0,1,0-3.38,0A15.25,15.25,0,0,0,6,11.24a1.69,1.69,0,0,0,.45.79c.27.26,6.71,6.62-1.4,22.72C-2.1,49-.46,56.21,2.65,64.85A1.67,1.67,0,0,0,4.24,66a1.65,1.65,0,0,0,.58-.1,1.72,1.72,0,0,0,1-2.2C4.25,59.33,3.18,55.47,3.5,50.83a65.77,65.77,0,0,0,27,5.58,71.91,71.91,0,0,0,16.66-2h.07a1.75,1.75,0,0,0,.7-.19A78.37,78.37,0,0,0,58.54,50.7c.35,4.7-.73,8.59-2.3,13a1.71,1.71,0,0,0,1,2.2,1.59,1.59,0,0,0,.58.1,1.68,1.68,0,0,0,1.59-1.12C62.51,56.21,64.16,49,57,34.74ZM51.34,49.63a10.46,10.46,0,0,0,.44-2.2,1.69,1.69,0,1,0-3.37-.2,6.15,6.15,0,0,1-1.68,3.71,68,68,0,0,1-31.11.25c-1.76-1.15-2-3.87-2-4a1.69,1.69,0,1,0-3.37.2,10.46,10.46,0,0,0,.51,2.45A45.87,45.87,0,0,1,4,47.26a44.85,44.85,0,0,1,4-10.95C12.85,26.82,13,20.14,12,15.81a14.48,14.48,0,0,0,5.6,1.12A14.93,14.93,0,0,0,31,8.33a14.92,14.92,0,0,0,13.42,8.6,14.61,14.61,0,0,0,5.61-1.14c-1,4.35-.86,11,3.92,20.52A45.11,45.11,0,0,1,58,47.2,70.36,70.36,0,0,1,51.34,49.63ZM31,39.82a2.42,2.42,0,1,0,2.38,2.42A2.39,2.39,0,0,0,31,39.82Z"/></g></g>
</symbol>
<symbol id="programmes-6" viewBox="0 0 57.01 66.03"><defs><style>.cls-1{fill:#3d3dd9;}</style></defs><title>ceirf &#x438; &#x440;&#x435;&#x43B;&#x44C;&#x435;&#x444;</title><g id="&#x421;&#x43B;&#x43E;&#x439;_2" data-name="&#x421;&#x43B;&#x43E;&#x439; 2"><g id="&#x421;&#x43B;&#x43E;&#x439;_1-2" data-name="&#x421;&#x43B;&#x43E;&#x439; 1"><path class="cls-1" d="M50.75,38.61a6.21,6.21,0,0,0-1.7.23,6.26,6.26,0,0,0-12.34,1.51v4.52H20.29V40.35A6.26,6.26,0,0,0,8,38.85a6.21,6.21,0,0,0-1.7-.23A6.28,6.28,0,0,0,0,44.9V55.2a6.28,6.28,0,0,0,6.26,6.29A6.2,6.2,0,0,0,8,61.25a6.26,6.26,0,0,0,12.34-1.51V55.22H36.72v4.52a6.26,6.26,0,0,0,12.34,1.51,6.2,6.2,0,0,0,1.7.23A6.28,6.28,0,0,0,57,55.2V44.9a6.28,6.28,0,0,0-6.26-6.29Zm-43,19.63a3.32,3.32,0,0,1-1.52.36A3.4,3.4,0,0,1,2.87,55.2V44.9a3.4,3.4,0,0,1,3.39-3.41,3.34,3.34,0,0,1,1.52.36Zm9.65,1.5a3.39,3.39,0,1,1-6.78,0V40.35a3.39,3.39,0,1,1,6.78,0Zm19.3-7.4H20.29V47.76H36.72Zm9.65-11.28V59.74a3.39,3.39,0,1,1-6.78,0V40.35a3.39,3.39,0,1,1,6.78,0ZM54.14,55.2a3.4,3.4,0,0,1-3.39,3.41,3.32,3.32,0,0,1-1.52-.36V41.85a3.32,3.32,0,0,1,1.52-.36,3.4,3.4,0,0,1,3.39,3.4ZM20.86,21.61A1.44,1.44,0,0,1,19.42,23H16.84a1.44,1.44,0,0,1,0-2.88h2.59a1.44,1.44,0,0,1,1.43,1.44Zm0,4.64a1.44,1.44,0,0,1-1.43,1.44H16.84a1.44,1.44,0,0,1,0-2.88h2.59a1.44,1.44,0,0,1,1.43,1.44ZM8.48,32.61a1.44,1.44,0,0,0,1.43-1.44V27.95a6.3,6.3,0,0,0,0-10.86V17a3.4,3.4,0,0,1,3.39-3.41H23a3.4,3.4,0,0,1,3.34,2.81,12.31,12.31,0,0,0-3.6,7.81c0,3,1.67,4.92,3.65,5.52v10.8a1.43,1.43,0,1,0,2.87,0V29.72c2-.6,3.65-2.48,3.65-5.52a12.32,12.32,0,0,0-3.69-7.9,6.29,6.29,0,0,0-4.67-5.41V6.5a1.44,1.44,0,0,0-1.43-1.44h-.75V1.44A1.44,1.44,0,0,0,20.9,0H15.37a1.44,1.44,0,0,0-1.43,1.44V5.06h-.75A1.44,1.44,0,0,0,11.75,6.5v4.39A6.29,6.29,0,0,0,7,17v1A1.44,1.44,0,0,0,8,19.33,3.41,3.41,0,0,1,8,25.7,1.44,1.44,0,0,0,7,27v4.13a1.44,1.44,0,0,0,1.43,1.44ZM27.78,19A9.35,9.35,0,0,1,30,24.2c0,2-1.11,2.86-2.22,2.86s-2.22-.88-2.22-2.86A9.34,9.34,0,0,1,27.78,19ZM16.8,2.88h2.66V5.06H16.8ZM14.62,7.94h7v2.75h-7ZM44.77,40.46V41a1.43,1.43,0,1,1-2.87,0v-.56a1.43,1.43,0,1,1,2.87,0Zm0,0"/></g></g>
</symbol>
<symbol id="tel" viewBox="0 0 29.7 30"><defs><style>.cls-1{fill:#3d3dd9;}</style></defs><title>tel</title><g id="&#x421;&#x43B;&#x43E;&#x439;_2" data-name="&#x421;&#x43B;&#x43E;&#x439; 2"><g id="&#x421;&#x43B;&#x43E;&#x439;_1-2" data-name="&#x421;&#x43B;&#x43E;&#x439; 1"><path class="cls-1" d="M14.85,0A14.92,14.92,0,0,0,0,15,14.92,14.92,0,0,0,14.85,30a15,15,0,0,0,0-30Zm0,26.79A11.7,11.7,0,0,1,3.22,15,11.63,11.63,0,1,1,14.85,26.79Zm5.06-9.9a1.14,1.14,0,0,0-1.74,0c-.4.41-.82.82-1.21,1.23a.24.24,0,0,1-.33.06c-.27-.15-.54-.26-.8-.42a12.46,12.46,0,0,1-3-2.79,7.1,7.1,0,0,1-1.09-1.76.25.25,0,0,1,.06-.32c.41-.39.81-.8,1.21-1.21a1.18,1.18,0,0,0,0-1.8l-1-1-1-1a1.15,1.15,0,0,0-1.74,0c-.41.41-.8.82-1.22,1.22a2,2,0,0,0-.62,1.35A5.84,5.84,0,0,0,7.87,13a15,15,0,0,0,2.63,4.42,16.26,16.26,0,0,0,5.39,4.26,7.69,7.69,0,0,0,3,.88,2.18,2.18,0,0,0,1.88-.72c.35-.39.74-.75,1.11-1.13a1.19,1.19,0,0,0,0-1.81Z"/></g></g>
</symbol></svg>