<?xml version="1.0" encoding="utf-8"?>
<!-- Generator: Adobe Illustrator 21.1.0, SVG Export Plug-In . SVG Version: 6.00 Build 0)  -->
<svg version="1.1" id="Слой_1" xmlns="http://www.w3.org/2000/svg" xmlns:xlink="http://www.w3.org/1999/xlink" x="0px" y="0px"
	 viewBox="0 0 102.1 102.1" style="enable-background:new 0 0 102.1 102.1;" xml:space="preserve">
<style type="text/css">
	.st0{fill:#3D3DD9;}
</style>
<title>discount</title>
<g id="Слой_2">
	<g id="Слой_1-2">
		<path class="st0" d="M51,102.1c-28.2,0-51-22.8-51.1-50.9c0-13.6,5.4-26.6,15-36.2C34.9-5,67.2-5,87.1,14.9s19.9,52.2,0,72.2
			C77.6,96.7,64.6,102.1,51,102.1z M51,4.1c-26,0-47,21-47,47s21,47,47,47s47-21,47-47c0,0,0-0.1,0-0.1C98,25.1,76.9,4.1,51,4.1
			L51,4.1z"/>
		<path class="st0" d="M34.9,43.9c-5,0-9-4-9-9s4-9,9-9s9,4,9,9C43.8,39.9,39.8,43.9,34.9,43.9z M34.9,29.9c-2.8,0-5,2.2-5,5
			s2.2,5,5,5s5-2.2,5-5C39.9,32.2,37.7,29.9,34.9,29.9C34.9,29.9,34.9,29.9,34.9,29.9L34.9,29.9z"/>
		<path class="st0" d="M67.2,76.3c-5,0-9-4-9-9s4-9,9-9s9,4,9,9C76.2,72.2,72.2,76.2,67.2,76.3z M67.2,62.3c-2.8,0-5,2.2-5,5
			s2.2,5,5,5s5-2.2,5-5C72.2,64.5,70,62.2,67.2,62.3C67.2,62.2,67.2,62.2,67.2,62.3L67.2,62.3z"/>
		<path class="st0" d="M32,71.9c-1.5,0-2.7-1.2-2.7-2.7c0-0.7,0.3-1.4,0.8-1.9l37.8-37.8c1.1-1.1,2.8-1.1,3.8,0s1.1,2.8,0,3.8
			L33.9,71.2C33.4,71.7,32.7,71.9,32,71.9z"/>
	</g>
</g>
</svg>
