<svg xmlns="http://www.w3.org/2000/svg" viewBox="0 0 192.81 60.13"><defs><style>.cls-1,.cls-2{fill-rule:evenodd;}.cls-2,.cls-3{fill:#3d3dd9;}</style></defs><title>logo</title><g id="Слой_2" data-name="Слой 2"><g id="Слой_1-2" data-name="Слой 1"><path class="cls-1" d="M157,39.42l-2.12,2.72A18,18,0,0,0,162.64,44c2.43,0,5.41-.34,7.36-1.94a5.84,5.84,0,0,0,2.3-4.71,6.46,6.46,0,0,0-1.45-4.31,7.67,7.67,0,0,0-4-2.41l-5.28-1.43a6.59,6.59,0,0,1-2.4-1.2,2.74,2.74,0,0,1-1-2.16,3,3,0,0,1,1.4-2.5,5.94,5.94,0,0,1,3.38-1A12.36,12.36,0,0,1,168.9,24l2.3-2.63A15.12,15.12,0,0,0,162.92,19,9,9,0,0,0,157,21a6.12,6.12,0,0,0-2.23,4.77,6.21,6.21,0,0,0,1.5,4.21,8.46,8.46,0,0,0,4.34,2.51l5.08,1.35a4.51,4.51,0,0,1,2.16,1.21,3.09,3.09,0,0,1,.87,2.19A2.85,2.85,0,0,1,167,39.77a9.57,9.57,0,0,1-4.35.83A15.56,15.56,0,0,1,157,39.42Z"/><path class="cls-1" d="M148.41,23.91a16.5,16.5,0,0,0-1.11-1.29,12.54,12.54,0,0,0-21.4,8.87,12.5,12.5,0,0,0,21.94,8.22l-2.69-2.11a9,9,0,0,1-6.73,3A8.77,8.77,0,0,1,134,39.46l-.73-.42,15.13-15.13Zm-4.84,0-12.7,12.7-.42-.73A9.11,9.11,0,0,1,132,25.06a9.11,9.11,0,0,1,10.85-1.53Z"/><path class="cls-1" d="M116.5,43.07h3.42V30.55a11.63,11.63,0,0,0-17.81-9.8l-1,.64V19.87H97.69v23.2h3.42V26.7l.08-.15a8.39,8.39,0,0,1,1.38-1.79,8.16,8.16,0,0,1,13.92,5.79Z"/><polygon class="cls-1" points="84.52 13.33 84.52 43.08 87.94 43.08 87.94 23.33 91.7 23.33 91.7 19.91 87.94 19.91 87.94 13.33 84.52 13.33"/><rect x="72.3" y="12.39" width="3.42" height="3.42"/><rect x="72.3" y="19.91" width="3.42" height="23.16"/><polygon class="cls-2" points="44.59 43.16 48.32 43.16 40.69 32.64 48.32 22.13 44.59 22.13 36.95 32.64 44.59 43.16"/><rect class="cls-3" x="30.83" y="16.12" width="3.01" height="27.04"/><path class="cls-2" d="M10.24,39.08l-1.86,2.4a16.37,16.37,0,0,0,7,1.68c2.2,0,4.92-.31,6.68-1.76a5.28,5.28,0,0,0,2.08-4.26,5.85,5.85,0,0,0-1.31-3.89,6.94,6.94,0,0,0-3.61-2.18l-4.82-1.31a6,6,0,0,1-2.21-1.11,2.56,2.56,0,0,1-.93-2,2.81,2.81,0,0,1,1.3-2.32,5.48,5.48,0,0,1,3.12-.89,11.31,11.31,0,0,1,5.39,1.47l2-2.32a13.73,13.73,0,0,0-7.47-2.17,8.11,8.11,0,0,0-5.39,1.88,5.53,5.53,0,0,0-2,4.31,5.61,5.61,0,0,0,1.35,3.8,7.67,7.67,0,0,0,3.94,2.27l4.63,1.24a4.17,4.17,0,0,1,2,1.12,2.88,2.88,0,0,1,.81,2,2.66,2.66,0,0,1-1.63,2.32,8.77,8.77,0,0,1-4,.76A14.23,14.23,0,0,1,10.24,39.08Z"/><path class="cls-1" d="M66.34,12.2V8.77a11.53,11.53,0,0,0-7.86,3.52A11.61,11.61,0,0,0,55,20.83V48.06a8.37,8.37,0,0,1-2.52,6.13,8.29,8.29,0,0,1-5.68,2.51c-.69,0-1.44,0-2.13,0H34l-.85,3.42H46.86a11.06,11.06,0,0,0,8-3.53,11.61,11.61,0,0,0,3.54-8.54V28.16h3.76V24.74H58.37V20.83a8.37,8.37,0,0,1,2.52-6.13A8.28,8.28,0,0,1,66.34,12.2Z"/><path class="cls-2" d="M54.38,8.74l.31-.31A18.13,18.13,0,0,1,57,6.49,16,16,0,0,0,44.1,0H16A16.06,16.06,0,0,0,0,16V44.1a16.06,16.06,0,0,0,16,16H27.62l.85-3.42H16A12.64,12.64,0,0,1,3.42,44.1V16A12.64,12.64,0,0,1,16,3.42H44.1A12.63,12.63,0,0,1,54.38,8.74Z"/><path class="cls-1" d="M177.49,39.42l-2.12,2.72A18,18,0,0,0,183.14,44c2.43,0,5.41-.34,7.36-1.94a5.84,5.84,0,0,0,2.3-4.71,6.46,6.46,0,0,0-1.45-4.31,7.67,7.67,0,0,0-4-2.41l-5.28-1.43a6.59,6.59,0,0,1-2.4-1.2,2.75,2.75,0,0,1-1-2.16,3,3,0,0,1,1.4-2.5,5.94,5.94,0,0,1,3.38-1A12.36,12.36,0,0,1,189.4,24l2.3-2.63A15.12,15.12,0,0,0,183.42,19,9,9,0,0,0,177.48,21a6.12,6.12,0,0,0-2.23,4.77,6.21,6.21,0,0,0,1.5,4.21,8.46,8.46,0,0,0,4.34,2.51l5.08,1.35a4.52,4.52,0,0,1,2.16,1.21,3.09,3.09,0,0,1,.87,2.19,2.85,2.85,0,0,1-1.75,2.49,9.56,9.56,0,0,1-4.35.83A15.55,15.55,0,0,1,177.49,39.42Z"/></g></g></svg>