<?xml version="1.0" encoding="utf-8"?>
<!-- Generator: Adobe Illustrator 21.1.0, SVG Export Plug-In . SVG Version: 6.00 Build 0)  -->
<svg version="1.1" id="Слой_1" xmlns="http://www.w3.org/2000/svg" xmlns:xlink="http://www.w3.org/1999/xlink" x="0px" y="0px"
	 viewBox="0 0 112.3 85.8" style="enable-background:new 0 0 112.3 85.8;" xml:space="preserve">
<style type="text/css">
	.st0{fill:#3D3DD9;}
</style>
<title>metro</title>
<g id="Слой_2">
	<g id="Режим_изоляции">
		<path class="st0" d="M104.3,85.8H8l-0.6-1C7.1,84.4,0,73.5,0,56.7C0,25.4,25.2,0,56.2,0s56.2,25.4,56.2,56.7
			c-0.1,9.8-2.6,19.5-7.3,28.1L104.3,85.8z M10.4,81.6h91.5c4-7.7,6.1-16.2,6.2-24.9c0-28.9-23.3-52.4-51.9-52.4S4.3,27.8,4.3,56.7
			C4.2,65.4,6.3,73.9,10.4,81.6z"/>
		<path class="st0" d="M38.8,67.3H21.2c-1.2,0-2.1-1-2.1-2.1s1-2.1,2.1-2.1h17.6c1.2,0,2.1,1,2.1,2.1S40,67.3,38.8,67.3z"/>
		<path class="st0" d="M29.4,67.3c-1.2,0-2.1-1-2.1-2.1c0-0.3,0-0.5,0.1-0.7l14-37.3c0.4-1.1,1.6-1.7,2.7-1.2
			c0.5,0.2,0.9,0.6,1.2,1.1l12.5,26c0.5,1.1,0.1,2.3-1,2.8s-2.3,0.1-2.8-1l0,0L43.6,33.3L31.4,66C31.1,66.8,30.3,67.3,29.4,67.3z"/>
		<path class="st0" d="M82.3,67.3c-0.9,0-1.7-0.5-2-1.4L68.1,33.3L57.8,54.8c-0.5,1-1.8,1.4-2.9,0.9c-1-0.5-1.4-1.7-1-2.7l12.5-26
			c0.5-1.1,1.8-1.5,2.8-1c0.5,0.2,0.9,0.7,1.1,1.2l14,37.3c0.4,1.1-0.1,2.3-1.2,2.7C82.8,67.3,82.6,67.4,82.3,67.3L82.3,67.3z"/>
		<path class="st0" d="M91.1,67.3H73.5c-1.2,0-2.1-1-2.1-2.1s1-2.1,2.1-2.1h17.6c1.2,0,2.1,1,2.1,2.1S92.3,67.3,91.1,67.3z"/>
	</g>
</g>
</svg>
