<svg xmlns="http://www.w3.org/2000/svg" viewBox="0 0 29.7 30"><defs><style>.cls-1{fill:#3d3dd9;fill-rule:evenodd;}</style></defs><title>metro</title><g id="Слой_2" data-name="Слой 2"><g id="Слой_1-2" data-name="Слой 1"><path class="cls-1" d="M14.85,0a15,15,0,0,1,0,30A14.92,14.92,0,0,1,0,15,14.92,14.92,0,0,1,14.85,0ZM14,21l-3.1-5.8L9.74,20.47l-.12.6H6.21l.2-.87L9.19,8.54l.55-2.39,1.14,2.23,4,7.67,3.93-7.67,1.14-2.23.55,2.39,2.79,11.64.24.87H20l-.16-.6L18.7,15.26l-3,5.76-.82,1.55Zm.83-17.76A11.76,11.76,0,1,1,3.22,15,11.69,11.69,0,0,1,14.85,3.26Z"/></g></g></svg>