<svg xmlns="http://www.w3.org/2000/svg" viewBox="0 0 51 65.99"><defs><style>.cls-1{fill:#3d3dd9;}</style></defs><title>новичкам</title><g id="Слой_2" data-name="Слой 2"><g id="Слой_1-2" data-name="Слой 1"><path class="cls-1" d="M47.82,9.9H41.44a3.24,3.24,0,0,0-3.19-3.3H35.07V3.3A3.25,3.25,0,0,0,31.88,0H19.13a3.25,3.25,0,0,0-3.19,3.3V6.6H12.75A3.25,3.25,0,0,0,9.56,9.9H3.19A3.25,3.25,0,0,0,0,13.2V62.69A3.24,3.24,0,0,0,3.19,66H47.82A3.24,3.24,0,0,0,51,62.69V13.2A3.25,3.25,0,0,0,47.82,9.9Zm-35.07,0h6.38V3.3H31.88V9.9h6.38v3.3H12.75ZM47.82,62.69H3.19V13.2H9.56a3.24,3.24,0,0,0,3.19,3.3h25.5a3.24,3.24,0,0,0,3.19-3.3h6.38ZM31.24,49.11H28V26.48c0-.89-.43-1.32-1.3-1.29a1.22,1.22,0,0,0-1.34,1.29,5.63,5.63,0,0,1-1.84,4.38A6.75,6.75,0,0,1,19.27,32q-1.15,0-1.1,1.19a1.1,1.1,0,0,0,1.25,1.19H24.9V49.11H21.68a1.65,1.65,0,0,0,0,3.3h9.56a1.65,1.65,0,0,0,0-3.3Z"/></g></g></svg>