<svg xmlns="http://www.w3.org/2000/svg" viewBox="0 0 62.06 65.99"><defs><style>.cls-1{fill:#3d3dd9;}</style></defs><title>после родов</title><g id="Слой_2" data-name="Слой 2"><g id="Слой_1-2" data-name="Слой 1"><path class="cls-1" d="M57,34.74C48.91,18.69,55.27,12.32,55.58,12a1.75,1.75,0,0,0,.47-.81,15.31,15.31,0,0,0,3.36-9.51,1.69,1.69,0,1,0-3.38,0,11.59,11.59,0,1,1-23.18,0A1.7,1.7,0,0,0,31.17,0c-.06,0-.1,0-.14,0s-.09,0-.14,0A1.69,1.69,0,0,0,29.2,1.71a11.71,11.71,0,0,1-11.6,11.8A11.7,11.7,0,0,1,6,1.71a1.69,1.69,0,1,0-3.38,0A15.25,15.25,0,0,0,6,11.24a1.69,1.69,0,0,0,.45.79c.27.26,6.71,6.62-1.4,22.72C-2.1,49-.46,56.21,2.65,64.85A1.67,1.67,0,0,0,4.24,66a1.65,1.65,0,0,0,.58-.1,1.72,1.72,0,0,0,1-2.2C4.25,59.33,3.18,55.47,3.5,50.83a65.77,65.77,0,0,0,27,5.58,71.91,71.91,0,0,0,16.66-2h.07a1.75,1.75,0,0,0,.7-.19A78.37,78.37,0,0,0,58.54,50.7c.35,4.7-.73,8.59-2.3,13a1.71,1.71,0,0,0,1,2.2,1.59,1.59,0,0,0,.58.1,1.68,1.68,0,0,0,1.59-1.12C62.51,56.21,64.16,49,57,34.74ZM51.34,49.63a10.46,10.46,0,0,0,.44-2.2,1.69,1.69,0,1,0-3.37-.2,6.15,6.15,0,0,1-1.68,3.71,68,68,0,0,1-31.11.25c-1.76-1.15-2-3.87-2-4a1.69,1.69,0,1,0-3.37.2,10.46,10.46,0,0,0,.51,2.45A45.87,45.87,0,0,1,4,47.26a44.85,44.85,0,0,1,4-10.95C12.85,26.82,13,20.14,12,15.81a14.48,14.48,0,0,0,5.6,1.12A14.93,14.93,0,0,0,31,8.33a14.92,14.92,0,0,0,13.42,8.6,14.61,14.61,0,0,0,5.61-1.14c-1,4.35-.86,11,3.92,20.52A45.11,45.11,0,0,1,58,47.2,70.36,70.36,0,0,1,51.34,49.63ZM31,39.82a2.42,2.42,0,1,0,2.38,2.42A2.39,2.39,0,0,0,31,39.82Z"/></g></g></svg>