<svg xmlns="http://www.w3.org/2000/svg" viewBox="0 0 57.01 66.03"><defs><style>.cls-1{fill:#3d3dd9;}</style></defs><title>ceirf и рельеф</title><g id="Слой_2" data-name="Слой 2"><g id="Слой_1-2" data-name="Слой 1"><path class="cls-1" d="M50.75,38.61a6.21,6.21,0,0,0-1.7.23,6.26,6.26,0,0,0-12.34,1.51v4.52H20.29V40.35A6.26,6.26,0,0,0,8,38.85a6.21,6.21,0,0,0-1.7-.23A6.28,6.28,0,0,0,0,44.9V55.2a6.28,6.28,0,0,0,6.26,6.29A6.2,6.2,0,0,0,8,61.25a6.26,6.26,0,0,0,12.34-1.51V55.22H36.72v4.52a6.26,6.26,0,0,0,12.34,1.51,6.2,6.2,0,0,0,1.7.23A6.28,6.28,0,0,0,57,55.2V44.9a6.28,6.28,0,0,0-6.26-6.29Zm-43,19.63a3.32,3.32,0,0,1-1.52.36A3.4,3.4,0,0,1,2.87,55.2V44.9a3.4,3.4,0,0,1,3.39-3.41,3.34,3.34,0,0,1,1.52.36Zm9.65,1.5a3.39,3.39,0,1,1-6.78,0V40.35a3.39,3.39,0,1,1,6.78,0Zm19.3-7.4H20.29V47.76H36.72Zm9.65-11.28V59.74a3.39,3.39,0,1,1-6.78,0V40.35a3.39,3.39,0,1,1,6.78,0ZM54.14,55.2a3.4,3.4,0,0,1-3.39,3.41,3.32,3.32,0,0,1-1.52-.36V41.85a3.32,3.32,0,0,1,1.52-.36,3.4,3.4,0,0,1,3.39,3.4ZM20.86,21.61A1.44,1.44,0,0,1,19.42,23H16.84a1.44,1.44,0,0,1,0-2.88h2.59a1.44,1.44,0,0,1,1.43,1.44Zm0,4.64a1.44,1.44,0,0,1-1.43,1.44H16.84a1.44,1.44,0,0,1,0-2.88h2.59a1.44,1.44,0,0,1,1.43,1.44ZM8.48,32.61a1.44,1.44,0,0,0,1.43-1.44V27.95a6.3,6.3,0,0,0,0-10.86V17a3.4,3.4,0,0,1,3.39-3.41H23a3.4,3.4,0,0,1,3.34,2.81,12.31,12.31,0,0,0-3.6,7.81c0,3,1.67,4.92,3.65,5.52v10.8a1.43,1.43,0,1,0,2.87,0V29.72c2-.6,3.65-2.48,3.65-5.52a12.32,12.32,0,0,0-3.69-7.9,6.29,6.29,0,0,0-4.67-5.41V6.5a1.44,1.44,0,0,0-1.43-1.44h-.75V1.44A1.44,1.44,0,0,0,20.9,0H15.37a1.44,1.44,0,0,0-1.43,1.44V5.06h-.75A1.44,1.44,0,0,0,11.75,6.5v4.39A6.29,6.29,0,0,0,7,17v1A1.44,1.44,0,0,0,8,19.33,3.41,3.41,0,0,1,8,25.7,1.44,1.44,0,0,0,7,27v4.13a1.44,1.44,0,0,0,1.43,1.44ZM27.78,19A9.35,9.35,0,0,1,30,24.2c0,2-1.11,2.86-2.22,2.86s-2.22-.88-2.22-2.86A9.34,9.34,0,0,1,27.78,19ZM16.8,2.88h2.66V5.06H16.8ZM14.62,7.94h7v2.75h-7ZM44.77,40.46V41a1.43,1.43,0,1,1-2.87,0v-.56a1.43,1.43,0,1,1,2.87,0Zm0,0"/></g></g></svg>