<svg xmlns="http://www.w3.org/2000/svg" viewBox="0 0 44.94 65.95"><defs><style>.cls-1{fill:#3d3dd9;}</style></defs><title>после травм</title><g id="Слой_2" data-name="Слой 2"><g id="Слой_1-2" data-name="Слой 1"><path class="cls-1" d="M44.25,6.8,40.52,1.56A3.74,3.74,0,0,0,35.33.68L32.18,2.9a23.31,23.31,0,0,1-14,4.27,7.78,7.78,0,0,0-4.63,1.42,7.71,7.71,0,0,0-3.27,6.69A13.28,13.28,0,0,0,0,28.31a13.46,13.46,0,0,0,1.81,6.75,7.68,7.68,0,0,0-.29,9.53A23.35,23.35,0,0,1,6.09,58.39v3.85a3.72,3.72,0,0,0,3.72,3.7h6.45A3.72,3.72,0,0,0,20,62.24V58.39a23,23,0,0,1,4.57-13.8,7.69,7.69,0,0,0-.29-9.53A13.37,13.37,0,0,0,25.8,31a7.79,7.79,0,0,0,2.84-1.25,7.67,7.67,0,0,0,2.88-3.88,23.43,23.43,0,0,1,8.68-11.69L43.37,12A3.7,3.7,0,0,0,44.25,6.8ZM11.15,18.42a7.74,7.74,0,0,0,5.3,4,7.72,7.72,0,0,0,6,8.54,10.16,10.16,0,0,1-.79,2A7.79,7.79,0,0,0,13,34.33,7.79,7.79,0,0,0,4.41,33a10.26,10.26,0,0,1-1.15-4.73A10,10,0,0,1,11.15,18.42ZM21.93,42.66a26.24,26.24,0,0,0-5.21,15.73v3.85a.46.46,0,0,1-.46.46H9.81a.46.46,0,0,1-.46-.46V58.39A26.6,26.6,0,0,0,4.14,42.66,4.43,4.43,0,0,1,3.26,40a4.51,4.51,0,0,1,8.37-2.3,1.64,1.64,0,0,0,2.8,0A4.51,4.51,0,0,1,22.81,40,4.43,4.43,0,0,1,21.93,42.66ZM41.48,9.31l-3.16,2.22a26.7,26.7,0,0,0-9.9,13.32,4.44,4.44,0,0,1-1.67,2.25A4.52,4.52,0,0,1,20.48,26a4.43,4.43,0,0,1-.45-4.4A1.61,1.61,0,0,0,19.87,20a1.63,1.63,0,0,0-1.33-.69h-.13a4.48,4.48,0,0,1-3-8.12,4.43,4.43,0,0,1,2.68-.82A26.57,26.57,0,0,0,34.06,5.55l3.16-2.22a.46.46,0,0,1,.64.11l3.73,5.24A.46.46,0,0,1,41.48,9.31ZM19.12,11.56a3.83,3.83,0,0,0-3.83,3.81,1.63,1.63,0,0,0,3.26,0,.57.57,0,0,1,.57-.56,1.62,1.62,0,1,0,0-3.25Z"/></g></g></svg>