<?xml version="1.0" encoding="utf-8"?>
<!-- Generator: Adobe Illustrator 21.1.0, SVG Export Plug-In . SVG Version: 6.00 Build 0)  -->
<svg version="1.1" id="Слой_1" xmlns="http://www.w3.org/2000/svg" xmlns:xlink="http://www.w3.org/1999/xlink" x="0px" y="0px"
	 viewBox="0 0 69.9 137" style="enable-background:new 0 0 69.9 137;" xml:space="preserve">
<style type="text/css">
	.st0{fill:#3D3DD9;}
</style>
<title>rest zone</title>
<g id="Слой_2">
	<g id="Режим_изоляции">
		<path class="st0" d="M69.3,34.2c-0.4-0.4-1-0.7-1.6-0.7H41.5V15.3c0-1.2,1-2.2,2.2-2.2h21.9c1.2,0,2.2-1,2.2-2.2l0,0V2.2
			c0-1.2-1-2.2-2.2-2.2l0,0H43.7c-8.4,0-15.3,6.9-15.3,15.3v18.2H2.2c-1.2,0-2.2,1-2.2,2.2v0.1l3.1,69.9c0,1.2,1,2.2,2.2,2.2
			s2.2-1,2.2-2.2c0-0.1,0-0.2,0-0.2l-3-67.6h61l-4.1,94.7H8.6l-0.8-18.4c-0.1-1.2-1.2-2.1-2.4-2c-1.1,0.1-2,1-2,2.2l0.9,20.5
			c0,1.2,1,2.1,2.2,2.1h56.8c1.2,0,2.1-0.9,2.2-2.1L70,35.8C70,35.2,69.8,34.6,69.3,34.2L69.3,34.2z M32.8,15.3
			c0-6,4.9-10.9,10.9-10.9h19.7v4.4H43.7c-3.6,0-6.6,2.9-6.6,6.6v18.2h-4.4L32.8,15.3L32.8,15.3z"/>
		<path class="st0" d="M50.2,88.9c0,1.2-1,2.2-2.2,2.2s-2.2-1-2.2-2.2s1-2.2,2.2-2.2C49.2,86.7,50.2,87.7,50.2,88.9L50.2,88.9z"/>
		<path class="st0" d="M24.6,109.3c0,1.2-1,2.2-2.2,2.2s-2.2-1-2.2-2.2s1-2.2,2.2-2.2S24.6,108.1,24.6,109.3L24.6,109.3z"/>
		<path class="st0" d="M30.6,42.3c-1.2,0-2.2,1-2.2,2.2v8.6l-0.5,0.4c-1.3,1.1-2.9,1.7-4.6,1.6c-1.7,0-3.3-0.6-4.6-1.6
			c-2-1.6-4.5-2.5-7.1-2.4c-1.2,0-2.2,1-2.2,2.2v0.1l3.2,72.9c0.1,1.2,1,2.1,2.2,2.1H55c1.2,0,2.1-0.9,2.2-2.1l3.2-72.9
			c0-1.2-0.9-2.2-2.1-2.3c0,0,0,0-0.1,0c-2.6,0-5.1,0.8-7.1,2.4c-2.6,2.2-6.5,2.2-9.1,0l-0.5-0.4v-8.6c-0.1-1.2-1.1-2.1-2.3-2
			c-1.1,0.1-2,0.9-2,2v6.8c-1.4-0.3-2.9-0.3-4.4,0v-6.8C32.8,43.2,31.8,42.3,30.6,42.3z M14,55.7c0.8,0.3,1.6,0.7,2.3,1.3
			c2,1.6,4.5,2.5,7.1,2.4c1.8,0,3.5-0.4,5.1-1.2v65.6H17L14,55.7z M46.6,59.5c2.6,0,5.1-0.8,7.1-2.5c0.7-0.5,1.4-1,2.3-1.3l-3,68.2
			H41.5V58.3C43.1,59.1,44.8,59.5,46.6,59.5L46.6,59.5z M35,55.4c0.7,0,1.5,0.1,2.2,0.3v68.2h-4.4V55.7C33.5,55.5,34.3,55.4,35,55.4
			z"/>
	</g>
</g>
</svg>
