<?xml version="1.0" encoding="utf-8"?>
<!-- Generator: Adobe Illustrator 21.1.0, SVG Export Plug-In . SVG Version: 6.00 Build 0)  -->
<svg version="1.1" id="Слой_1" xmlns="http://www.w3.org/2000/svg" xmlns:xlink="http://www.w3.org/1999/xlink" x="0px" y="0px"
	 viewBox="0 0 120.9 131.9" style="enable-background:new 0 0 120.9 131.9;" xml:space="preserve">
<style type="text/css">
	.st0{fill:#3D3DD9;}
</style>
<title>locker</title>
<g id="Слой_2">
	<g id="Режим_изоляции">
		<path class="st0" d="M118.1,0H2.8C1.2,0,0,1.2,0,2.8v126.4c0,1.5,1.2,2.7,2.8,2.7h115.4c1.5,0,2.7-1.2,2.7-2.7V2.8
			C120.9,1.2,119.7,0,118.1,0L118.1,0z M44,5.5h33v120.9H44V5.5z M5.5,87.9V5.5h33v120.9h-33V87.9z M115.4,126.4h-33V5.5h33V126.4z"
			/>
		<path class="st0" d="M13.7,57.7c-1.5,0-2.7,1.2-2.7,2.7v11c0,1.5,1.2,2.8,2.8,2.8s2.8-1.2,2.8-2.8v-11
			C16.5,58.9,15.3,57.7,13.7,57.7L13.7,57.7z"/>
		<path class="st0" d="M13.7,96.2c4.6,0,8.2-3.8,8.2-8.3c0-3.4-2.2-6.5-5.4-7.7v-0.5c0-1.5-1.2-2.8-2.8-2.8S11,78.2,11,79.7v0.5
			c-4.3,1.6-6.5,6.3-4.9,10.6C7.2,94,10.3,96.1,13.7,96.2z M13.7,85.2c1.5,0,2.8,1.2,2.8,2.7s-1.2,2.8-2.7,2.8S11,89.5,11,88
			C11,86.4,12.2,85.2,13.7,85.2L13.7,85.2z"/>
		<path class="st0" d="M52.2,57.7c-1.5,0-2.8,1.2-2.8,2.8v11c0.1,1.5,1.4,2.7,2.9,2.6c1.4-0.1,2.5-1.2,2.6-2.6v-11
			C54.9,58.9,53.7,57.7,52.2,57.7z"/>
		<path class="st0" d="M52.2,96.2c4.6,0,8.2-3.8,8.2-8.3c0-3.4-2.2-6.5-5.4-7.7v-0.5c0.1-1.5-1.1-2.8-2.6-2.9s-2.8,1.1-2.9,2.6
			c0,0.1,0,0.2,0,0.3v0.5c-4.3,1.6-6.5,6.3-4.9,10.6C45.7,94,48.8,96.1,52.2,96.2L52.2,96.2z M52.2,85.2c1.5,0,2.8,1.2,2.8,2.8
			s-1.2,2.8-2.8,2.8s-2.8-1.2-2.8-2.8l0,0C49.5,86.4,50.7,85.2,52.2,85.2L52.2,85.2z"/>
		<path class="st0" d="M90.7,74.2c1.5,0,2.7-1.2,2.7-2.7v-11c0-1.5-1.2-2.8-2.8-2.8s-2.8,1.2-2.8,2.8v11
			C87.9,73,89.2,74.2,90.7,74.2L90.7,74.2z"/>
		<path class="st0" d="M90.7,96.2c4.6,0,8.2-3.7,8.2-8.3c0-3.5-2.2-6.6-5.5-7.7v-0.5c0-1.5-1.2-2.8-2.8-2.8s-2.8,1.2-2.8,2.8v0.5
			c-4.3,1.6-6.5,6.3-4.9,10.6C84.2,94,87.2,96.1,90.7,96.2L90.7,96.2z M90.7,85.2c1.5,0,2.8,1.2,2.8,2.8s-1.2,2.8-2.8,2.8
			s-2.8-1.2-2.8-2.8l0,0C87.9,86.4,89.2,85.2,90.7,85.2L90.7,85.2z"/>
		<path class="st0" d="M13.7,19.2h16.5c1.5,0.1,2.8-1.1,2.9-2.6s-1.1-2.8-2.6-2.9c-0.1,0-0.2,0-0.3,0H13.7c-1.5-0.1-2.8,1.1-2.9,2.6
			s1.1,2.8,2.6,2.9C13.5,19.2,13.6,19.2,13.7,19.2z"/>
		<path class="st0" d="M30.2,22H13.7c-1.5-0.1-2.8,1.1-2.9,2.6s1.1,2.8,2.6,2.9c0.1,0,0.2,0,0.3,0h16.5c1.5,0.1,2.8-1.1,2.9-2.6
			S32,22.1,30.5,22C30.4,22,30.3,22,30.2,22z"/>
		<path class="st0" d="M30.2,30.2H13.7c-1.5-0.1-2.8,1.1-2.9,2.6c-0.1,1.5,1.1,2.8,2.6,2.9c0.1,0,0.2,0,0.3,0h16.5
			c1.5,0.1,2.8-1.1,2.9-2.6c0.1-1.5-1.1-2.8-2.6-2.9C30.4,30.2,30.3,30.2,30.2,30.2z"/>
		<path class="st0" d="M52.2,19.2h16.5c1.5-0.1,2.7-1.4,2.6-2.9c-0.1-1.4-1.2-2.5-2.6-2.6H52.2c-1.5-0.1-2.8,1.1-2.9,2.6
			s1.1,2.8,2.6,2.9C52,19.2,52.1,19.2,52.2,19.2z"/>
		<path class="st0" d="M52.2,27.5h16.5c1.5-0.1,2.7-1.4,2.6-2.9c-0.1-1.4-1.2-2.5-2.6-2.6H52.2c-1.5-0.1-2.8,1.1-2.9,2.6
			s1.1,2.8,2.6,2.9C52,27.5,52.1,27.5,52.2,27.5z"/>
		<path class="st0" d="M71.4,33c0-1.5-1.2-2.7-2.7-2.7l0,0H52.2c-1.5-0.1-2.8,1.1-2.9,2.6c-0.1,1.5,1.1,2.8,2.6,2.9
			c0.1,0,0.2,0,0.3,0h16.5C70.2,35.7,71.4,34.5,71.4,33z"/>
		<path class="st0" d="M90.7,19.2h16.5c1.5-0.1,2.7-1.4,2.6-2.9c-0.1-1.4-1.2-2.5-2.6-2.6H90.7c-1.5-0.1-2.8,1.1-2.9,2.6
			s1.1,2.8,2.6,2.9C90.4,19.2,90.6,19.2,90.7,19.2z"/>
		<path class="st0" d="M90.7,27.5h16.5c1.5-0.1,2.7-1.4,2.6-2.9c-0.1-1.4-1.2-2.5-2.6-2.6H90.7c-1.5-0.1-2.8,1.1-2.9,2.6
			s1.1,2.8,2.6,2.9C90.4,27.5,90.6,27.5,90.7,27.5z"/>
		<path class="st0" d="M90.7,35.7h16.5c1.5-0.1,2.7-1.4,2.6-2.9c-0.1-1.4-1.2-2.5-2.6-2.6H90.7c-1.5-0.1-2.8,1.1-2.9,2.6
			s1.1,2.8,2.6,2.9C90.4,35.7,90.6,35.7,90.7,35.7z"/>
		<path class="st0" d="M13.7,118.1c-1.5,0-2.8,1.2-2.8,2.8s1.2,2.8,2.8,2.8s2.8-1.2,2.8-2.8S15.3,118.1,13.7,118.1L13.7,118.1z"/>
		<path class="st0" d="M22,118.1c-1.5,0-2.8,1.2-2.8,2.8s1.2,2.8,2.8,2.8s2.8-1.2,2.8-2.8S23.5,118.1,22,118.1L22,118.1z"/>
		<path class="st0" d="M30.2,118.1c-1.5,0-2.7,1.3-2.7,2.8s1.3,2.7,2.8,2.7s2.7-1.2,2.7-2.7S31.8,118.1,30.2,118.1L30.2,118.1z"/>
		<path class="st0" d="M52.2,123.6c1.5,0,2.7-1.2,2.7-2.8c0-1.5-1.2-2.7-2.8-2.7c-1.5,0-2.7,1.2-2.7,2.8l0,0
			C49.5,122.4,50.7,123.6,52.2,123.6z"/>
		<path class="st0" d="M60.4,123.6c1.5,0,2.7-1.2,2.7-2.8c0-1.5-1.2-2.7-2.8-2.7c-1.5,0-2.7,1.2-2.7,2.8l0,0
			C57.7,122.4,58.9,123.6,60.4,123.6z"/>
		<path class="st0" d="M68.7,118.1c-1.5,0-2.8,1.2-2.8,2.7s1.2,2.8,2.7,2.8s2.8-1.2,2.8-2.7l0,0C71.4,119.4,70.2,118.1,68.7,118.1z"
			/>
		<path class="st0" d="M90.7,118.1c-1.5,0-2.8,1.2-2.8,2.7s1.2,2.8,2.7,2.8s2.8-1.2,2.8-2.7l0,0C93.4,119.4,92.2,118.1,90.7,118.1z"
			/>
		<path class="st0" d="M98.9,118.1c-1.5,0-2.8,1.2-2.8,2.7s1.2,2.8,2.7,2.8s2.8-1.2,2.8-2.7l0,0C101.7,119.4,100.4,118.1,98.9,118.1
			z"/>
		<path class="st0" d="M107.2,118.1c-1.5,0-2.8,1.2-2.8,2.7s1.2,2.8,2.7,2.8s2.8-1.2,2.8-2.7l0,0
			C109.9,119.4,108.7,118.1,107.2,118.1z"/>
	</g>
</g>
</svg>
