<svg xmlns="http://www.w3.org/2000/svg" viewBox="0 0 66 52"><defs><style>.cls-1{fill:#3d3dd9;}</style></defs><title>снятие стресса</title><g id="Слой_2" data-name="Слой 2"><g id="Слой_1-2" data-name="Слой 1"><path class="cls-1" d="M66,17.65a17.17,17.17,0,0,1-.9,5.49C62.29,35.76,38.05,51,37,51.69A1.88,1.88,0,0,1,36,52a1.92,1.92,0,0,1-1.05-.3,130.93,130.93,0,0,1-14-10.37,2,2,0,0,1-.23-2.76,2,2,0,0,1,2.79-.23A131.79,131.79,0,0,0,36,47.71C43.26,43,59.33,31,61.3,22.1A13.74,13.74,0,0,0,54.86,5.56,14.21,14.21,0,0,0,37.48,8.83a2,2,0,0,1-3,0A14.24,14.24,0,0,0,17.06,5.54,13.82,13.82,0,0,0,9.87,17.65a13.47,13.47,0,0,0,.69,4.24,15.28,15.28,0,0,0,1.56,3.88H23.61l3.94-9a2,2,0,0,1,3.72.32l2.9,12.23,3.75-6.12a2,2,0,0,1,1.69-1h7.13a2,2,0,0,1,0,3.92h-6L35.06,35.4a2,2,0,0,1-1.67.94,1.5,1.5,0,0,1-.3,0,2,2,0,0,1-1.62-1.47L28.81,23.71l-2.09,4.8a2,2,0,0,1-1.81,1.19H2a2,2,0,0,1,0-3.92H7.74a17,17,0,0,1-1-2.83,16.83,16.83,0,0,1-.85-5.3A17.72,17.72,0,0,1,15.17,2.12,18.27,18.27,0,0,1,36,4.74,18.25,18.25,0,0,1,56.76,2.12,17.72,17.72,0,0,1,66,17.65Zm0,0"/></g></g></svg>