<svg xmlns="http://www.w3.org/2000/svg" viewBox="0 0 66.03 65.93"><defs><style>.cls-1{fill:#3d3dd9;}</style></defs><title>красота и здоровье</title><g id="Слой_2" data-name="Слой 2"><g id="Слой_1-2" data-name="Слой 1"><path class="cls-1" d="M51,2.35a1.65,1.65,0,0,0-3-1.4c-6.72,14.25-2.86,23.21.87,31.87l.47,1.11c-2.83,2.17-8.88,4-16.36,4s-13.54-1.81-16.36-4l.47-1.1C20.86,24.16,24.72,15.2,18,.95a1.65,1.65,0,0,0-3,1.4c6.09,12.91,2.68,20.8-.92,29.16-3.9,9.07-7.94,18.44,1,33.6a1.65,1.65,0,0,0,2.85-1.67c-5.07-8.6-5.57-15-4.31-20.78C23.16,45.32,30,54.6,31.37,56.54v7.73a1.65,1.65,0,0,0,3.3,0V56.54c1.39-2,8.23-11.24,17.74-13.89,1.26,5.75.76,12.19-4.31,20.79a1.65,1.65,0,0,0,2.85,1.67c8.93-15.16,4.89-24.53,1-33.6C48.33,23.16,44.93,15.26,51,2.35ZM33,53.2C30.27,49.59,23.6,42,14.5,39.48c.27-.82.56-1.62.88-2.43C19.17,39.59,25.51,41.2,33,41.2s13.84-1.6,17.65-4.13c.31.8.6,1.6.87,2.41C42.43,42,35.76,49.59,33,53.2Zm0-21.89a1.65,1.65,0,1,0-1.65-1.65A1.65,1.65,0,0,0,33,31.31ZM14.37,18.61l-5-4.94A1.65,1.65,0,1,0,7.09,16l2.13,2.13H1.65a1.65,1.65,0,1,0,0,3.3H9.22L7.09,23.56a1.65,1.65,0,0,0,2.34,2.33l5-4.94A1.65,1.65,0,0,0,14.37,18.61Zm50-.48H56.81L58.94,16a1.65,1.65,0,0,0-2.33-2.33l-5,4.94a1.65,1.65,0,0,0,0,2.33l5,4.94a1.65,1.65,0,0,0,2.34-2.33l-2.13-2.13h7.57a1.65,1.65,0,1,0,0-3.3Z"/></g></g></svg>