<?xml version="1.0" encoding="utf-8"?>
<!-- Generator: Adobe Illustrator 21.1.0, SVG Export Plug-In . SVG Version: 6.00 Build 0)  -->
<svg version="1.1" id="Слой_1" xmlns="http://www.w3.org/2000/svg" xmlns:xlink="http://www.w3.org/1999/xlink" x="0px" y="0px"
	 viewBox="0 0 170.3 170.3" style="enable-background:new 0 0 170.3 170.3;" xml:space="preserve">
<style type="text/css">
	.st0{fill:#3D3DD9;}
</style>
<title>reception</title>
<g id="Слой_2">
	<g id="Слой_1-2">
		<path class="st0" d="M167.5,102.2H2.8c-1.5,0.1-2.7-1-2.8-2.5c0-0.1,0-0.2,0-0.3v-17c-0.1-1.5,1-2.7,2.5-2.8c0.1,0,0.2,0,0.3,0
			h164.6c1.5-0.1,2.7,1,2.8,2.5c0,0.1,0,0.2,0,0.3v17c0.1,1.5-1,2.7-2.5,2.8C167.7,102.2,167.6,102.2,167.5,102.2z M5.7,96.5h158.9
			V85.2H5.7V96.5z"/>
		<path class="st0" d="M71,85.2H25.5c-1.5,0.1-2.7-1-2.8-2.5c0-0.1,0-0.2,0-0.3V62.4c0-8.3,4-16,10.8-20.7c1.1-0.6,2.3-0.6,3.4,0
			c6.9,4.8,16.1,4.8,23,0c1.1-0.6,2.3-0.6,3.4,0c6.8,4.7,10.8,12.5,10.8,20.7v19.9C73.9,83.9,72.6,85.2,71,85.2z M28.4,79.5h39.7
			v-17c-0.1-5.7-2.6-11.2-6.8-15c-8,4.8-18.1,4.8-26.1,0c-4.2,3.8-6.7,9.3-6.8,15L28.4,79.5z"/>
		<path class="st0" d="M48.3,39.7C37.3,39.8,28.4,31,28.4,20.1c0-0.1,0-0.2,0-0.2C28.4,8.9,37.3,0,48.3,0s19.9,8.9,19.9,19.9
			c0.1,10.9-8.7,19.8-19.6,19.9C48.4,39.7,48.3,39.7,48.3,39.7z M48.3,5.7c-7.8-0.1-14.1,6.1-14.2,13.9c0,0.1,0,0.2,0,0.3
			c0,7.8,6.4,14.2,14.2,14.2s14.2-6.4,14.2-14.2c0.1-7.8-6.1-14.1-13.9-14.2C48.4,5.7,48.3,5.7,48.3,5.7z"/>
		<path class="st0" d="M141.9,76.6h-28.4c-1.5,0.1-2.7-1-2.8-2.5c0-0.1,0-0.2,0-0.3V62.4c-0.1-1.5,1-2.7,2.5-2.8c0.1,0,0.2,0,0.3,0
			h28.4c1.5-0.1,2.7,1,2.8,2.5c0,0.1,0,0.2,0,0.3v11.4c0.1,1.5-1,2.7-2.5,2.8C142.1,76.6,142,76.6,141.9,76.6z M116.4,71h22.7v-5.7
			h-22.7V71z"/>
		<path class="st0" d="M144.8,65.3h-34.1c-1.5,0.1-2.7-1-2.8-2.5c0-0.1,0-0.2,0-0.3c0-11,8.9-19.9,19.9-19.9s19.9,8.9,19.9,19.9
			c0.1,1.5-1,2.7-2.5,2.8C145,65.3,144.9,65.3,144.8,65.3z M113.8,59.6h27.8c-1.6-7.7-9.1-12.6-16.8-11.1
			C119.3,49.7,115,54,113.8,59.6z"/>
		<path class="st0" d="M144.8,85.2h-34.1c-1.5,0.1-2.7-1-2.8-2.5c0-0.1,0-0.2,0-0.3v-8.5c-0.1-1.5,1.1-2.7,2.6-2.8
			c0.1,0,0.2,0,0.3,0h34.1c1.5-0.1,2.7,1,2.8,2.5c0,0.1,0,0.2,0,0.3v8.5c0.1,1.5-1.1,2.7-2.6,2.8C144.9,85.2,144.9,85.2,144.8,85.2z
			 M113.5,79.5h28.4v-2.8h-28.4L113.5,79.5z"/>
		<path class="st0" d="M158.9,170.3H11.4c-4.6,0.1-8.4-3.6-8.5-8.2c0-0.1,0-0.2,0-0.3V99.3c-0.1-1.5,1-2.7,2.5-2.8
			c0.1,0,0.2,0,0.3,0h158.9c1.5-0.1,2.7,1,2.8,2.5c0,0.1,0,0.2,0,0.3v62.4c0.1,4.6-3.6,8.4-8.2,8.5
			C159.2,170.3,159.1,170.3,158.9,170.3z M8.5,102.2v59.6c-0.1,1.5,1,2.7,2.5,2.8c0.1,0,0.2,0,0.3,0h147.6c1.5,0.1,2.7-1,2.8-2.5
			c0-0.1,0-0.2,0-0.3v-59.6H8.5z"/>
		<path class="st0" d="M48.3,73.8c-1,0-2-0.5-2.5-1.4l-8.5-14.2c-0.7-1.1-0.4-2.6,0.6-3.4l8.5-8.5c1-1.1,2.8-1.2,3.9-0.1
			c0,0,0.1,0.1,0.1,0.1l8.5,8.5c0.9,0.9,1.1,2.3,0.6,3.4l-8.5,14.2C50.3,73.3,49.3,73.8,48.3,73.8z M43.4,57.3l4.8,8.2l4.8-8.2
			l-4.8-5.1L43.4,57.3z"/>
		<path class="st0" d="M82.3,158.9c-14.1,0-25.5-11.4-25.5-25.6c0-14.1,11.4-25.5,25.6-25.5s25.5,11.4,25.5,25.5
			c0.1,14-11.3,25.5-25.3,25.6C82.5,159,82.4,159,82.3,158.9z M82.3,113.5c-11,0-19.9,8.9-19.9,19.9c0,11,8.9,19.9,19.9,19.9
			s19.9-8.9,19.9-19.9l0,0c0.1-10.9-8.7-19.8-19.6-19.9C82.5,113.5,82.4,113.5,82.3,113.5L82.3,113.5z"/>
		<path class="st0" d="M82.3,147.6c-7.8,0.1-14.1-6.1-14.2-13.9c0-0.1,0-0.2,0-0.3c0-1.6,1.3-2.8,2.8-2.8c1.6,0,2.8,1.3,2.8,2.8
			c-0.1,4.6,3.6,8.4,8.2,8.5c0.1,0,0.2,0,0.3,0c1.6,0,2.8,1.3,2.8,2.8C85.2,146.3,83.9,147.6,82.3,147.6
			C82.3,147.6,82.3,147.6,82.3,147.6L82.3,147.6z"/>
		<path class="st0" d="M93.7,136.2c-1.5,0.1-2.7-1-2.8-2.5c0-0.1,0-0.2,0-0.3c0.1-4.6-3.6-8.4-8.2-8.5c-0.1,0-0.2,0-0.3,0
			c-1.6,0-2.8-1.3-2.8-2.8c0-1.6,1.3-2.8,2.8-2.8c7.8-0.1,14.1,6.1,14.2,13.9c0,0.1,0,0.2,0,0.3c0.1,1.5-1,2.7-2.5,2.8
			C93.9,136.2,93.8,136.2,93.7,136.2z"/>
		<path class="st0" d="M25.5,158.9H5.7c-1.6,0-2.8-1.3-2.8-2.8s1.3-2.8,2.8-2.8c0,0,0,0,0,0h19.9c1.6,0,2.8,1.3,2.8,2.8
			S27.1,158.9,25.5,158.9C25.6,158.9,25.6,158.9,25.5,158.9z"/>
		<path class="st0" d="M25.5,147.6H5.7c-1.6,0-2.8-1.3-2.8-2.8s1.3-2.8,2.8-2.8c0,0,0,0,0,0h19.9c1.6,0,2.8,1.3,2.8,2.8
			S27.1,147.6,25.5,147.6C25.6,147.6,25.6,147.6,25.5,147.6z"/>
		<path class="st0" d="M164.6,158.9h-19.9c-1.6,0-2.8-1.3-2.8-2.8s1.3-2.8,2.8-2.8c0,0,0,0,0,0h19.9c1.6,0,2.8,1.3,2.8,2.8
			S166.2,158.9,164.6,158.9C164.6,158.9,164.6,158.9,164.6,158.9L164.6,158.9z"/>
		<path class="st0" d="M164.6,147.6h-19.9c-1.6,0-2.8-1.3-2.8-2.8s1.3-2.8,2.8-2.8c0,0,0,0,0,0h19.9c1.6,0,2.8,1.3,2.8,2.8
			S166.2,147.6,164.6,147.6C164.6,147.6,164.6,147.6,164.6,147.6L164.6,147.6z"/>
	</g>
</g>
</svg>
