<?xml version="1.0" encoding="utf-8"?>
<!-- Generator: Adobe Illustrator 21.1.0, SVG Export Plug-In . SVG Version: 6.00 Build 0)  -->
<svg version="1.1" id="Слой_1" xmlns="http://www.w3.org/2000/svg" xmlns:xlink="http://www.w3.org/1999/xlink" x="0px" y="0px"
	 viewBox="0 0 137 137" style="enable-background:new 0 0 137 137;" xml:space="preserve">
<style type="text/css">
	.st0{fill:#3D3DD9;}
</style>
<title>shower</title>
<g id="Слой_2">
	<g id="Режим_изоляции">
		<path class="st0" d="M134.8,13.3H116V4.4h18.8c1.2-0.1,2.1-1.1,2-2.3c-0.1-1.1-0.9-2-2-2H49.2c-6.5,0-11.8,5.3-11.8,11.8v16.5
			c-0.7,0.3-1.3,0.9-1.4,1.7l-1.8,9.5C22.2,41.7,11.9,47.2,5,55l0,0c-0.1,0.1-0.1,0.1-0.2,0.2l0,0c0,0.1-0.1,0.2-0.1,0.2l0,0
			c0,0.1-0.1,0.2-0.1,0.3l0,0c0,0.1,0,0.2-0.1,0.3l0,0L3.1,66.1H2.2c-1.2-0.1-2.3,0.8-2.3,2s0.8,2.3,2,2.3c0.1,0,0.2,0,0.3,0h88.2
			c1.2,0.1,2.3-0.8,2.3-2s-0.8-2.3-2-2.3c-0.1,0-0.2,0-0.3,0h-0.9l-1.3-9.8l0,0c0-0.1,0-0.2-0.1-0.3l0,0c0-0.1-0.1-0.2-0.1-0.3l0,0
			c0-0.1-0.1-0.2-0.1-0.2l0,0c-0.1-0.1-0.1-0.2-0.2-0.2l0,0c-6.9-7.8-17.2-13.4-29.2-15.7l-1.8-9.5c-0.2-0.8-0.7-1.4-1.5-1.7V17.7
			h56.5v81.4c-0.8,0.5-1.4,1.2-1.9,2l-16.7,28.8c-1.5,2-1,4.8,1,6.2c0.9,0.7,2,1,3.1,0.8h33.3c2.4,0.3,4.6-1.5,4.9-4
			c0.1-1.1-0.2-2.2-0.8-3.1L118,101c-0.5-0.8-1.1-1.5-1.9-2V17.7h18.8c1.2-0.1,2.1-1.1,2-2.3C136.8,14.3,135.9,13.4,134.8,13.3
			L134.8,13.3z M130.7,132.1c0.1,0.1,0.2,0.3,0.2,0.4c-0.2,0-0.3,0.1-0.5,0.1H97.2c-0.2,0-0.3,0-0.5-0.1c0-0.2,0.1-0.3,0.2-0.4
			l16.6-28.8c0.1-0.1,0.2-0.3,0.3-0.4c0.1,0.1,0.2,0.3,0.3,0.4L130.7,132.1z M56.2,43.4c9.6,1.6,18.1,5.4,24.4,10.9H32.8
			c-1.2,0.1-2.1,1.1-2,2.3c0.1,1.1,0.9,2,2,2H84l1,7.4H7.5l1-7.4h15.6c1.2-0.1,2.1-1.1,2-2.3c-0.1-1.1-0.9-2-2-2H11.9
			c7-5.7,15.3-9.5,24.2-10.9h11.6c1.2,0.1,2.3-0.8,2.3-2c0.1-1.2-0.8-2.3-2-2.3c-0.1,0-0.2,0-0.3,0h-9.2l1.3-6.6h12.7l1.8,9.2
			C54.6,42.6,55.3,43.3,56.2,43.4z M52.9,13.3c-1.2,0-2.2,1-2.2,2.2l0,0v12.6h-8.9V11.8c0-4.1,3.3-7.4,7.4-7.4h62.4v8.9L52.9,13.3z"
			/>
		<path class="st0" d="M17.1,76.9c-1.2,0-2.2,1-2.2,2.2l0,0v5.8c-0.1,1.2,0.8,2.3,2,2.3c1.2,0.1,2.3-0.8,2.3-2c0-0.1,0-0.2,0-0.3
			v-5.8C19.3,77.8,18.3,76.9,17.1,76.9L17.1,76.9L17.1,76.9z"/>
		<path class="st0" d="M17.1,126.8c-1.2,0-2.2,1-2.2,2.2l0,0v5.8c-0.1,1.2,0.8,2.3,2,2.3s2.3-0.8,2.3-2c0-0.1,0-0.2,0-0.3V129
			C19.3,127.8,18.3,126.8,17.1,126.8L17.1,126.8L17.1,126.8z"/>
		<path class="st0" d="M17.1,110.2c-1.2,0-2.2,1-2.2,2.2l0,0v5.8c0.1,1.2,1.1,2.1,2.3,2c1.1-0.1,2-0.9,2-2v-5.8
			C19.3,111.1,18.3,110.2,17.1,110.2L17.1,110.2L17.1,110.2z"/>
		<path class="st0" d="M17.1,93.5c-1.2,0-2.2,1-2.2,2.2l0,0v5.8c-0.1,1.2,0.8,2.3,2,2.3c1.2,0.1,2.3-0.8,2.3-2c0-0.1,0-0.2,0-0.3
			v-5.8C19.3,94.5,18.3,93.5,17.1,93.5L17.1,93.5L17.1,93.5z"/>
		<path class="st0" d="M28.8,76.9c-1.2,0-2.2,1-2.2,2.2l0,0v5.8c-0.1,1.2,0.8,2.3,2,2.3c1.2,0.1,2.3-0.8,2.3-2c0-0.1,0-0.2,0-0.3
			v-5.8C31,77.8,30,76.9,28.8,76.9L28.8,76.9L28.8,76.9z"/>
		<path class="st0" d="M28.8,126.8c-1.2,0-2.2,1-2.2,2.2l0,0v5.8c-0.1,1.2,0.8,2.3,2,2.3c1.2,0.1,2.3-0.8,2.3-2c0-0.1,0-0.2,0-0.3
			V129C31,127.8,30,126.8,28.8,126.8L28.8,126.8L28.8,126.8z"/>
		<path class="st0" d="M28.8,110.2c-1.2,0-2.2,1-2.2,2.2l0,0v5.8c0.1,1.2,1.1,2.1,2.3,2c1.1-0.1,2-0.9,2-2v-5.8
			C31,111.1,30,110.2,28.8,110.2L28.8,110.2L28.8,110.2z"/>
		<path class="st0" d="M28.8,93.5c-1.2,0-2.2,1-2.2,2.2l0,0v5.8c-0.1,1.2,0.8,2.3,2,2.3c1.2,0.1,2.3-0.8,2.3-2c0-0.1,0-0.2,0-0.3
			v-5.8C31,94.5,30,93.5,28.8,93.5L28.8,93.5L28.8,93.5z"/>
		<path class="st0" d="M40.4,76.9c-1.2,0-2.2,1-2.2,2.2l0,0v5.8c-0.1,1.2,0.8,2.3,2,2.3s2.3-0.8,2.3-2c0-0.1,0-0.2,0-0.3v-5.8
			C42.6,77.8,41.6,76.9,40.4,76.9L40.4,76.9L40.4,76.9z"/>
		<path class="st0" d="M40.4,126.8c-1.2,0-2.2,1-2.2,2.2l0,0v5.8c-0.1,1.2,0.8,2.3,2,2.3c1.2,0.1,2.3-0.8,2.3-2c0-0.1,0-0.2,0-0.3
			V129C42.6,127.8,41.6,126.8,40.4,126.8L40.4,126.8L40.4,126.8z"/>
		<path class="st0" d="M40.4,110.2c-1.2,0-2.2,1-2.2,2.2l0,0v5.8c0.1,1.2,1.1,2.1,2.3,2c1.1-0.1,2-0.9,2-2v-5.8
			C42.6,111.1,41.6,110.2,40.4,110.2L40.4,110.2L40.4,110.2z"/>
		<path class="st0" d="M40.4,93.5c-1.2,0-2.2,1-2.2,2.2l0,0v5.8c-0.1,1.2,0.8,2.3,2,2.3s2.3-0.8,2.3-2c0-0.1,0-0.2,0-0.3v-5.8
			C42.6,94.5,41.6,93.5,40.4,93.5L40.4,93.5L40.4,93.5z"/>
		<path class="st0" d="M52.1,76.9c-1.2,0-2.2,1-2.2,2.2l0,0v5.8c-0.1,1.2,0.8,2.3,2,2.3s2.3-0.8,2.3-2c0-0.1,0-0.2,0-0.3v-5.8
			C54.3,77.8,53.3,76.9,52.1,76.9L52.1,76.9L52.1,76.9z"/>
		<path class="st0" d="M52.1,126.8c-1.2,0-2.2,1-2.2,2.2l0,0v5.8c-0.1,1.2,0.8,2.3,2,2.3c1.2,0.1,2.3-0.8,2.3-2c0-0.1,0-0.2,0-0.3
			V129C54.3,127.8,53.3,126.8,52.1,126.8L52.1,126.8L52.1,126.8z"/>
		<path class="st0" d="M52.1,110.2c-1.2,0-2.2,1-2.2,2.2l0,0v5.8c0.1,1.2,1.1,2.1,2.3,2c1.1-0.1,2-0.9,2-2v-5.8
			C54.3,111.1,53.3,110.2,52.1,110.2L52.1,110.2L52.1,110.2z"/>
		<path class="st0" d="M52.1,93.5c-1.2,0-2.2,1-2.2,2.2l0,0v5.8c-0.1,1.2,0.8,2.3,2,2.3s2.3-0.8,2.3-2c0-0.1,0-0.2,0-0.3v-5.8
			C54.3,94.5,53.3,93.5,52.1,93.5L52.1,93.5L52.1,93.5z"/>
		<path class="st0" d="M63.8,76.9c-1.2,0-2.2,1-2.2,2.2l0,0v5.8c0.1,1.2,1.1,2.1,2.3,2c1.1-0.1,2-0.9,2-2v-5.8
			C65.9,77.8,65,76.9,63.8,76.9L63.8,76.9L63.8,76.9z"/>
		<path class="st0" d="M63.8,126.8c-1.2,0-2.2,1-2.2,2.2l0,0v5.8c-0.1,1.2,0.8,2.3,2,2.3c1.2,0.1,2.3-0.8,2.3-2c0-0.1,0-0.2,0-0.3
			V129C65.9,127.8,65,126.8,63.8,126.8L63.8,126.8L63.8,126.8z"/>
		<path class="st0" d="M63.8,110.2c-1.2,0-2.2,1-2.2,2.2l0,0v5.8c0.1,1.2,1.1,2.1,2.3,2c1.1-0.1,2-0.9,2-2v-5.8
			C65.9,111.1,65,110.2,63.8,110.2L63.8,110.2L63.8,110.2z"/>
		<path class="st0" d="M63.8,93.5c-1.2,0-2.2,1-2.2,2.2l0,0v5.8c-0.1,1.2,0.8,2.3,2,2.3c1.2,0.1,2.3-0.8,2.3-2c0-0.1,0-0.2,0-0.3
			v-5.8C65.9,94.5,65,93.5,63.8,93.5L63.8,93.5L63.8,93.5z"/>
		<path class="st0" d="M75.4,76.9c-1.2,0-2.2,1-2.2,2.2l0,0v5.8c0.1,1.2,1.1,2.1,2.3,2c1.1-0.1,2-0.9,2-2v-5.8
			C77.6,77.8,76.6,76.9,75.4,76.9L75.4,76.9L75.4,76.9z"/>
		<path class="st0" d="M75.4,126.8c-1.2,0-2.2,1-2.2,2.2l0,0v5.8c-0.1,1.2,0.8,2.3,2,2.3c1.2,0.1,2.3-0.8,2.3-2c0-0.1,0-0.2,0-0.3
			V129C77.6,127.8,76.6,126.8,75.4,126.8L75.4,126.8L75.4,126.8z"/>
		<path class="st0" d="M75.4,110.2c-1.2,0-2.2,1-2.2,2.2l0,0v5.8c0.1,1.2,1.1,2.1,2.3,2c1.1-0.1,2-0.9,2-2v-5.8
			C77.6,111.1,76.6,110.2,75.4,110.2L75.4,110.2L75.4,110.2z"/>
		<path class="st0" d="M75.4,93.5c-1.2,0-2.2,1-2.2,2.2l0,0v5.8c-0.1,1.2,0.8,2.3,2,2.3s2.3-0.8,2.3-2c0-0.1,0-0.2,0-0.3v-5.8
			C77.6,94.5,76.6,93.5,75.4,93.5L75.4,93.5L75.4,93.5z"/>
	</g>
</g>
</svg>
